<mxfile host="app.diagrams.net" modified="2020-09-12T13:35:25.209Z" agent="5.0 (Macintosh; Intel Mac OS X 10_13_2) AppleWebKit/537.36 (KHTML, like Gecko) Chrome/85.0.4183.83 Safari/537.36" etag="wjI1yBbV40avd1VWmsSt" version="13.6.6" type="github">
  <diagram id="dsL6oakeFicBOrvGSXXl" name="Page-1">
    <mxGraphModel dx="946" dy="565" grid="1" gridSize="10" guides="1" tooltips="1" connect="1" arrows="1" fold="1" page="1" pageScale="1" pageWidth="827" pageHeight="1169" math="0" shadow="0">
      <root>
        <mxCell id="0" />
        <mxCell id="1" parent="0" />
        <mxCell id="AwmPWCsKpeCnTsiZ5o42-3" value="type: OBJ_LIST" style="whiteSpace=wrap;html=1;align=center;fillColor=#ffe6cc;strokeColor=#d79b00;" parent="1" vertex="1">
          <mxGeometry x="170" y="335" width="190" height="30" as="geometry" />
        </mxCell>
        <mxCell id="AwmPWCsKpeCnTsiZ5o42-4" value="encoding: OBJ_ENCODING_ZIPLIST" style="whiteSpace=wrap;html=1;align=center;fillColor=#d5e8d4;strokeColor=#82b366;" parent="1" vertex="1">
          <mxGeometry x="170" y="365" width="190" height="30" as="geometry" />
        </mxCell>
        <mxCell id="AwmPWCsKpeCnTsiZ5o42-5" value="ptr" style="whiteSpace=wrap;html=1;align=center;fillColor=#f8cecc;strokeColor=#b85450;" parent="1" vertex="1">
          <mxGeometry x="170" y="395" width="190" height="30" as="geometry" />
        </mxCell>
        <mxCell id="AwmPWCsKpeCnTsiZ5o42-6" value="···" style="whiteSpace=wrap;html=1;align=center;" parent="1" vertex="1">
          <mxGeometry x="170" y="425" width="190" height="30" as="geometry" />
        </mxCell>
        <mxCell id="AwmPWCsKpeCnTsiZ5o42-1" value="redisObject" style="swimlane;childLayout=stackLayout;horizontal=1;startSize=30;horizontalStack=0;rounded=1;fontSize=14;fontStyle=0;strokeWidth=2;resizeParent=0;resizeLast=1;shadow=0;dashed=0;align=center;swimlaneLine=0;fillColor=#dae8fc;strokeColor=#6c8ebf;" parent="1" vertex="1">
          <mxGeometry x="150" y="300" width="230" height="160" as="geometry" />
        </mxCell>
        <mxCell id="sL11Fz4VMmUzkcyhf7-z-1" value="" style="endArrow=classic;html=1;entryX=0;entryY=0.25;entryDx=0;entryDy=0;" parent="1" target="sL11Fz4VMmUzkcyhf7-z-2" edge="1">
          <mxGeometry width="50" height="50" relative="1" as="geometry">
            <mxPoint x="360" y="408" as="sourcePoint" />
            <mxPoint x="430" y="410" as="targetPoint" />
          </mxGeometry>
        </mxCell>
        <mxCell id="sL11Fz4VMmUzkcyhf7-z-4" value="zlbytes" style="whiteSpace=wrap;html=1;align=center;fillColor=#ffe6cc;strokeColor=#d79b00;" parent="1" vertex="1">
          <mxGeometry x="430" y="430" width="40" height="20" as="geometry" />
        </mxCell>
        <mxCell id="sL11Fz4VMmUzkcyhf7-z-6" value="zltail" style="whiteSpace=wrap;html=1;align=center;fillColor=#ffe6cc;strokeColor=#d79b00;" parent="1" vertex="1">
          <mxGeometry x="470" y="430" width="40" height="20" as="geometry" />
        </mxCell>
        <mxCell id="sL11Fz4VMmUzkcyhf7-z-10" value="zllen" style="whiteSpace=wrap;html=1;align=center;fillColor=#ffe6cc;strokeColor=#d79b00;" parent="1" vertex="1">
          <mxGeometry x="510" y="430" width="40" height="20" as="geometry" />
        </mxCell>
        <mxCell id="sL11Fz4VMmUzkcyhf7-z-11" value="entry" style="whiteSpace=wrap;html=1;align=center;fillColor=#f8cecc;strokeColor=#b85450;" parent="1" vertex="1">
          <mxGeometry x="550" y="430" width="40" height="20" as="geometry" />
        </mxCell>
        <mxCell id="sL11Fz4VMmUzkcyhf7-z-12" value="zlend" style="whiteSpace=wrap;html=1;align=center;fillColor=#fff2cc;strokeColor=#d6b656;" parent="1" vertex="1">
          <mxGeometry x="610" y="430" width="40" height="20" as="geometry" />
        </mxCell>
        <mxCell id="sL11Fz4VMmUzkcyhf7-z-13" value="···" style="text;html=1;align=center;verticalAlign=middle;resizable=0;points=[];autosize=1;" parent="1" vertex="1">
          <mxGeometry x="585" y="430" width="30" height="20" as="geometry" />
        </mxCell>
        <mxCell id="sL11Fz4VMmUzkcyhf7-z-2" value="ziplist" style="swimlane;childLayout=stackLayout;horizontal=1;startSize=30;horizontalStack=0;rounded=1;fontSize=14;fontStyle=0;strokeWidth=2;resizeParent=0;resizeLast=1;shadow=0;dashed=0;align=center;fillColor=#f8cecc;strokeColor=#b85450;" parent="1" vertex="1">
          <mxGeometry x="420" y="390" width="240" height="70" as="geometry" />
        </mxCell>
        <mxCell id="sL11Fz4VMmUzkcyhf7-z-15" value="" style="endArrow=classic;html=1;exitX=0.5;exitY=1;exitDx=0;exitDy=0;entryX=0.5;entryY=0;entryDx=0;entryDy=0;" parent="1" source="sL11Fz4VMmUzkcyhf7-z-11" target="sL11Fz4VMmUzkcyhf7-z-22" edge="1">
          <mxGeometry width="50" height="50" relative="1" as="geometry">
            <mxPoint x="390" y="520" as="sourcePoint" />
            <mxPoint x="570" y="480" as="targetPoint" />
          </mxGeometry>
        </mxCell>
        <mxCell id="sL11Fz4VMmUzkcyhf7-z-16" value="prevrawlen" style="whiteSpace=wrap;html=1;align=center;fillColor=#ffe6cc;strokeColor=#d79b00;" parent="1" vertex="1">
          <mxGeometry x="445" y="525" width="60" height="20" as="geometry" />
        </mxCell>
        <mxCell id="sL11Fz4VMmUzkcyhf7-z-17" value="len" style="whiteSpace=wrap;html=1;align=center;fillColor=#ffe6cc;strokeColor=#d79b00;" parent="1" vertex="1">
          <mxGeometry x="505" y="525" width="30" height="20" as="geometry" />
        </mxCell>
        <mxCell id="sL11Fz4VMmUzkcyhf7-z-18" value="encoding" style="whiteSpace=wrap;html=1;align=center;fillColor=#ffe6cc;strokeColor=#d79b00;" parent="1" vertex="1">
          <mxGeometry x="535" y="525" width="50" height="20" as="geometry" />
        </mxCell>
        <mxCell id="sL11Fz4VMmUzkcyhf7-z-19" value="p" style="whiteSpace=wrap;html=1;align=center;fillColor=#f8cecc;strokeColor=#b85450;" parent="1" vertex="1">
          <mxGeometry x="585" y="525" width="40" height="20" as="geometry" />
        </mxCell>
        <mxCell id="sL11Fz4VMmUzkcyhf7-z-23" value="" style="endArrow=classic;html=1;exitX=0.5;exitY=1;exitDx=0;exitDy=0;entryX=0.5;entryY=0;entryDx=0;entryDy=0;" parent="1" source="sL11Fz4VMmUzkcyhf7-z-19" target="sL11Fz4VMmUzkcyhf7-z-25" edge="1">
          <mxGeometry width="50" height="50" relative="1" as="geometry">
            <mxPoint x="505" y="565" as="sourcePoint" />
            <mxPoint x="665" y="525" as="targetPoint" />
          </mxGeometry>
        </mxCell>
        <mxCell id="sL11Fz4VMmUzkcyhf7-z-25" value="&#39;1&#39;" style="whiteSpace=wrap;html=1;align=center;fillColor=#e1d5e7;strokeColor=#9673a6;" parent="1" vertex="1">
          <mxGeometry x="595" y="555" width="20" height="20" as="geometry" />
        </mxCell>
        <mxCell id="sL11Fz4VMmUzkcyhf7-z-26" value="&#39;2&#39;" style="whiteSpace=wrap;html=1;align=center;fillColor=#e1d5e7;strokeColor=#9673a6;" parent="1" vertex="1">
          <mxGeometry x="615" y="555" width="20" height="20" as="geometry" />
        </mxCell>
        <mxCell id="sL11Fz4VMmUzkcyhf7-z-27" value="&#39;3&#39;" style="whiteSpace=wrap;html=1;align=center;fillColor=#e1d5e7;strokeColor=#9673a6;" parent="1" vertex="1">
          <mxGeometry x="635" y="555" width="20" height="20" as="geometry" />
        </mxCell>
        <mxCell id="sL11Fz4VMmUzkcyhf7-z-28" value="&#39;0&#39;" style="whiteSpace=wrap;html=1;align=center;fillColor=#e1d5e7;strokeColor=#9673a6;" parent="1" vertex="1">
          <mxGeometry x="655" y="555" width="20" height="20" as="geometry" />
        </mxCell>
        <mxCell id="sL11Fz4VMmUzkcyhf7-z-29" value="&#39;6&#39;" style="whiteSpace=wrap;html=1;align=center;fillColor=#e1d5e7;strokeColor=#9673a6;" parent="1" vertex="1">
          <mxGeometry x="675" y="555" width="20" height="20" as="geometry" />
        </mxCell>
        <mxCell id="sL11Fz4VMmUzkcyhf7-z-22" value="zlentry" style="swimlane;childLayout=stackLayout;horizontal=1;startSize=30;horizontalStack=0;rounded=1;fontSize=14;fontStyle=0;strokeWidth=2;resizeParent=0;resizeLast=1;shadow=0;dashed=0;align=center;fillColor=#f8cecc;strokeColor=#b85450;" parent="1" vertex="1">
          <mxGeometry x="435" y="485" width="270" height="100" as="geometry" />
        </mxCell>
        <mxCell id="sL11Fz4VMmUzkcyhf7-z-30" value="type: OBJ_LIST" style="whiteSpace=wrap;html=1;align=center;fillColor=#ffe6cc;strokeColor=#d79b00;" parent="1" vertex="1">
          <mxGeometry x="170" y="725" width="190" height="30" as="geometry" />
        </mxCell>
        <mxCell id="sL11Fz4VMmUzkcyhf7-z-31" value="encoding: OBJ_ENCODING_QUICKLIST" style="whiteSpace=wrap;html=1;align=center;fillColor=#d5e8d4;strokeColor=#82b366;" parent="1" vertex="1">
          <mxGeometry x="170" y="755" width="190" height="30" as="geometry" />
        </mxCell>
        <mxCell id="sL11Fz4VMmUzkcyhf7-z-32" value="ptr" style="whiteSpace=wrap;html=1;align=center;fillColor=#f8cecc;strokeColor=#b85450;" parent="1" vertex="1">
          <mxGeometry x="170" y="785" width="190" height="30" as="geometry" />
        </mxCell>
        <mxCell id="sL11Fz4VMmUzkcyhf7-z-33" value="···" style="whiteSpace=wrap;html=1;align=center;" parent="1" vertex="1">
          <mxGeometry x="170" y="815" width="190" height="30" as="geometry" />
        </mxCell>
        <mxCell id="sL11Fz4VMmUzkcyhf7-z-35" value="" style="endArrow=classic;html=1;entryX=0;entryY=0.25;entryDx=0;entryDy=0;" parent="1" target="sL11Fz4VMmUzkcyhf7-z-42" edge="1">
          <mxGeometry width="50" height="50" relative="1" as="geometry">
            <mxPoint x="360" y="798" as="sourcePoint" />
            <mxPoint x="430" y="800" as="targetPoint" />
          </mxGeometry>
        </mxCell>
        <mxCell id="sL11Fz4VMmUzkcyhf7-z-36" value="head" style="whiteSpace=wrap;html=1;align=center;fillColor=#f8cecc;strokeColor=#b85450;" parent="1" vertex="1">
          <mxGeometry x="430" y="820" width="40" height="20" as="geometry" />
        </mxCell>
        <mxCell id="sL11Fz4VMmUzkcyhf7-z-37" value="count" style="whiteSpace=wrap;html=1;align=center;fillColor=#ffe6cc;strokeColor=#d79b00;" parent="1" vertex="1">
          <mxGeometry x="470" y="820" width="40" height="20" as="geometry" />
        </mxCell>
        <mxCell id="sL11Fz4VMmUzkcyhf7-z-38" value="len" style="whiteSpace=wrap;html=1;align=center;fillColor=#ffe6cc;strokeColor=#d79b00;" parent="1" vertex="1">
          <mxGeometry x="510" y="820" width="40" height="20" as="geometry" />
        </mxCell>
        <mxCell id="sL11Fz4VMmUzkcyhf7-z-39" value="tail" style="whiteSpace=wrap;html=1;align=center;fillColor=#f8cecc;strokeColor=#b85450;" parent="1" vertex="1">
          <mxGeometry x="550" y="820" width="40" height="20" as="geometry" />
        </mxCell>
        <mxCell id="sL11Fz4VMmUzkcyhf7-z-43" value="" style="endArrow=classic;html=1;entryX=0.5;entryY=0;entryDx=0;entryDy=0;exitX=0.5;exitY=1;exitDx=0;exitDy=0;" parent="1" source="sL11Fz4VMmUzkcyhf7-z-36" target="sL11Fz4VMmUzkcyhf7-z-54" edge="1">
          <mxGeometry width="50" height="50" relative="1" as="geometry">
            <mxPoint x="640" y="860" as="sourcePoint" />
            <mxPoint x="570" y="870" as="targetPoint" />
          </mxGeometry>
        </mxCell>
        <mxCell id="sL11Fz4VMmUzkcyhf7-z-34" value="redisObject" style="swimlane;childLayout=stackLayout;horizontal=1;startSize=30;horizontalStack=0;rounded=1;fontSize=14;fontStyle=0;strokeWidth=2;resizeParent=0;resizeLast=1;shadow=0;dashed=0;align=center;swimlaneLine=0;fillColor=#dae8fc;strokeColor=#6c8ebf;" parent="1" vertex="1">
          <mxGeometry x="150" y="690" width="230" height="160" as="geometry" />
        </mxCell>
        <mxCell id="sL11Fz4VMmUzkcyhf7-z-55" value="prev" style="whiteSpace=wrap;html=1;align=center;fillColor=#f8cecc;strokeColor=#b85450;" parent="1" vertex="1">
          <mxGeometry x="324" y="930" width="40" height="20" as="geometry" />
        </mxCell>
        <mxCell id="sL11Fz4VMmUzkcyhf7-z-56" value="count" style="whiteSpace=wrap;html=1;align=center;fillColor=#ffe6cc;strokeColor=#d79b00;" parent="1" vertex="1">
          <mxGeometry x="364" y="930" width="40" height="20" as="geometry" />
        </mxCell>
        <mxCell id="sL11Fz4VMmUzkcyhf7-z-57" value="zl" style="whiteSpace=wrap;html=1;align=center;fillColor=#e1d5e7;strokeColor=#9673a6;" parent="1" vertex="1">
          <mxGeometry x="404" y="930" width="40" height="20" as="geometry" />
        </mxCell>
        <mxCell id="sL11Fz4VMmUzkcyhf7-z-58" value="next" style="whiteSpace=wrap;html=1;align=center;fillColor=#f8cecc;strokeColor=#b85450;" parent="1" vertex="1">
          <mxGeometry x="444" y="930" width="40" height="20" as="geometry" />
        </mxCell>
        <mxCell id="sL11Fz4VMmUzkcyhf7-z-63" value="prev" style="whiteSpace=wrap;html=1;align=center;fillColor=#f8cecc;strokeColor=#b85450;" parent="1" vertex="1">
          <mxGeometry x="554" y="930" width="40" height="20" as="geometry" />
        </mxCell>
        <mxCell id="sL11Fz4VMmUzkcyhf7-z-64" value="count" style="whiteSpace=wrap;html=1;align=center;fillColor=#ffe6cc;strokeColor=#d79b00;" parent="1" vertex="1">
          <mxGeometry x="594" y="930" width="40" height="20" as="geometry" />
        </mxCell>
        <mxCell id="sL11Fz4VMmUzkcyhf7-z-65" value="zl" style="whiteSpace=wrap;html=1;align=center;fillColor=#e1d5e7;strokeColor=#9673a6;" parent="1" vertex="1">
          <mxGeometry x="634" y="930" width="40" height="20" as="geometry" />
        </mxCell>
        <mxCell id="sL11Fz4VMmUzkcyhf7-z-66" value="next" style="whiteSpace=wrap;html=1;align=center;fillColor=#f8cecc;strokeColor=#b85450;" parent="1" vertex="1">
          <mxGeometry x="674" y="930" width="40" height="20" as="geometry" />
        </mxCell>
        <mxCell id="sL11Fz4VMmUzkcyhf7-z-70" value="" style="endArrow=classic;html=1;exitX=0;exitY=0;exitDx=0;exitDy=0;" parent="1" source="sL11Fz4VMmUzkcyhf7-z-63" edge="1">
          <mxGeometry width="50" height="50" relative="1" as="geometry">
            <mxPoint x="380" y="910" as="sourcePoint" />
            <mxPoint x="490" y="930" as="targetPoint" />
          </mxGeometry>
        </mxCell>
        <mxCell id="sL11Fz4VMmUzkcyhf7-z-75" value="" style="endArrow=classic;html=1;" parent="1" edge="1">
          <mxGeometry width="50" height="50" relative="1" as="geometry">
            <mxPoint x="484" y="950" as="sourcePoint" />
            <mxPoint x="550" y="950" as="targetPoint" />
          </mxGeometry>
        </mxCell>
        <mxCell id="sL11Fz4VMmUzkcyhf7-z-76" value="" style="endArrow=classic;html=1;exitX=0.5;exitY=1;exitDx=0;exitDy=0;entryX=0.5;entryY=0;entryDx=0;entryDy=0;" parent="1" source="sL11Fz4VMmUzkcyhf7-z-39" target="9GAb07feFsV1BC37GYXu-5" edge="1">
          <mxGeometry width="50" height="50" relative="1" as="geometry">
            <mxPoint x="390" y="1030" as="sourcePoint" />
            <mxPoint x="440" y="980" as="targetPoint" />
          </mxGeometry>
        </mxCell>
        <mxCell id="sL11Fz4VMmUzkcyhf7-z-54" value="quicklistNode" style="swimlane;childLayout=stackLayout;horizontal=1;startSize=30;horizontalStack=0;rounded=1;fontSize=14;fontStyle=0;strokeWidth=2;resizeParent=0;resizeLast=1;shadow=0;dashed=0;align=center;fillColor=#f8cecc;strokeColor=#b85450;" parent="1" vertex="1">
          <mxGeometry x="320" y="890" width="170" height="70" as="geometry" />
        </mxCell>
        <mxCell id="sL11Fz4VMmUzkcyhf7-z-67" value="quicklistNode" style="swimlane;childLayout=stackLayout;horizontal=1;startSize=30;horizontalStack=0;rounded=1;fontSize=14;fontStyle=0;strokeWidth=2;resizeParent=0;resizeLast=1;shadow=0;dashed=0;align=center;fillColor=#f8cecc;strokeColor=#b85450;" parent="1" vertex="1">
          <mxGeometry x="550" y="890" width="170" height="70" as="geometry" />
        </mxCell>
        <mxCell id="sL11Fz4VMmUzkcyhf7-z-77" value="" style="endArrow=classic;html=1;exitX=0.5;exitY=1;exitDx=0;exitDy=0;entryX=0.454;entryY=-0.043;entryDx=0;entryDy=0;entryPerimeter=0;" parent="1" source="sL11Fz4VMmUzkcyhf7-z-57" target="sL11Fz4VMmUzkcyhf7-z-84" edge="1">
          <mxGeometry width="50" height="50" relative="1" as="geometry">
            <mxPoint x="390" y="930" as="sourcePoint" />
            <mxPoint x="424" y="980" as="targetPoint" />
          </mxGeometry>
        </mxCell>
        <mxCell id="sL11Fz4VMmUzkcyhf7-z-78" value="zlbytes" style="whiteSpace=wrap;html=1;align=center;fillColor=#ffe6cc;strokeColor=#d79b00;" parent="1" vertex="1">
          <mxGeometry x="324" y="1020" width="40" height="20" as="geometry" />
        </mxCell>
        <mxCell id="sL11Fz4VMmUzkcyhf7-z-79" value="zltail" style="whiteSpace=wrap;html=1;align=center;fillColor=#ffe6cc;strokeColor=#d79b00;" parent="1" vertex="1">
          <mxGeometry x="364" y="1020" width="40" height="20" as="geometry" />
        </mxCell>
        <mxCell id="sL11Fz4VMmUzkcyhf7-z-80" value="zllen" style="whiteSpace=wrap;html=1;align=center;fillColor=#ffe6cc;strokeColor=#d79b00;" parent="1" vertex="1">
          <mxGeometry x="404" y="1020" width="40" height="20" as="geometry" />
        </mxCell>
        <mxCell id="sL11Fz4VMmUzkcyhf7-z-81" value="entry" style="whiteSpace=wrap;html=1;align=center;fillColor=#f8cecc;strokeColor=#b85450;" parent="1" vertex="1">
          <mxGeometry x="444" y="1020" width="40" height="20" as="geometry" />
        </mxCell>
        <mxCell id="sL11Fz4VMmUzkcyhf7-z-82" value="zlend" style="whiteSpace=wrap;html=1;align=center;fillColor=#fff2cc;strokeColor=#d6b656;" parent="1" vertex="1">
          <mxGeometry x="504" y="1020" width="40" height="20" as="geometry" />
        </mxCell>
        <mxCell id="sL11Fz4VMmUzkcyhf7-z-83" value="···" style="text;html=1;align=center;verticalAlign=middle;resizable=0;points=[];autosize=1;" parent="1" vertex="1">
          <mxGeometry x="479" y="1020" width="30" height="20" as="geometry" />
        </mxCell>
        <mxCell id="sL11Fz4VMmUzkcyhf7-z-84" value="ziplist" style="swimlane;childLayout=stackLayout;horizontal=1;startSize=30;horizontalStack=0;rounded=1;fontSize=14;fontStyle=0;strokeWidth=2;resizeParent=0;resizeLast=1;shadow=0;dashed=0;align=center;fillColor=#e1d5e7;strokeColor=#9673a6;" parent="1" vertex="1">
          <mxGeometry x="314" y="980" width="240" height="70" as="geometry" />
        </mxCell>
        <mxCell id="sL11Fz4VMmUzkcyhf7-z-42" value="quicklist" style="swimlane;childLayout=stackLayout;horizontal=1;startSize=30;horizontalStack=0;rounded=1;fontSize=14;fontStyle=0;strokeWidth=2;resizeParent=0;resizeLast=1;shadow=0;dashed=0;align=center;fillColor=#f8cecc;strokeColor=#b85450;" parent="1" vertex="1">
          <mxGeometry x="420" y="780" width="180" height="70" as="geometry" />
        </mxCell>
        <mxCell id="9GAb07feFsV1BC37GYXu-1" value="prev" style="whiteSpace=wrap;html=1;align=center;fillColor=#f8cecc;strokeColor=#b85450;" vertex="1" parent="1">
          <mxGeometry x="784" y="930" width="40" height="20" as="geometry" />
        </mxCell>
        <mxCell id="9GAb07feFsV1BC37GYXu-2" value="count" style="whiteSpace=wrap;html=1;align=center;fillColor=#ffe6cc;strokeColor=#d79b00;" vertex="1" parent="1">
          <mxGeometry x="824" y="930" width="40" height="20" as="geometry" />
        </mxCell>
        <mxCell id="9GAb07feFsV1BC37GYXu-3" value="zl" style="whiteSpace=wrap;html=1;align=center;fillColor=#e1d5e7;strokeColor=#9673a6;" vertex="1" parent="1">
          <mxGeometry x="864" y="930" width="40" height="20" as="geometry" />
        </mxCell>
        <mxCell id="9GAb07feFsV1BC37GYXu-4" value="next" style="whiteSpace=wrap;html=1;align=center;fillColor=#f8cecc;strokeColor=#b85450;" vertex="1" parent="1">
          <mxGeometry x="904" y="930" width="40" height="20" as="geometry" />
        </mxCell>
        <mxCell id="9GAb07feFsV1BC37GYXu-6" value="sz" style="whiteSpace=wrap;html=1;align=center;fillColor=#ffe6cc;strokeColor=#d79b00;" vertex="1" parent="1">
          <mxGeometry x="595" y="1020" width="40" height="20" as="geometry" />
        </mxCell>
        <mxCell id="9GAb07feFsV1BC37GYXu-7" value="compressed" style="whiteSpace=wrap;html=1;align=center;fillColor=#f8cecc;strokeColor=#b85450;" vertex="1" parent="1">
          <mxGeometry x="635" y="1020" width="75" height="20" as="geometry" />
        </mxCell>
        <mxCell id="9GAb07feFsV1BC37GYXu-13" value="" style="endArrow=classic;html=1;exitX=0.5;exitY=1;exitDx=0;exitDy=0;entryX=0.441;entryY=0;entryDx=0;entryDy=0;entryPerimeter=0;" edge="1" parent="1" source="sL11Fz4VMmUzkcyhf7-z-65" target="9GAb07feFsV1BC37GYXu-12">
          <mxGeometry width="50" height="50" relative="1" as="geometry">
            <mxPoint x="610" y="870" as="sourcePoint" />
            <mxPoint x="660" y="820" as="targetPoint" />
          </mxGeometry>
        </mxCell>
        <mxCell id="9GAb07feFsV1BC37GYXu-12" value="quicklistLZF" style="swimlane;childLayout=stackLayout;horizontal=1;startSize=30;horizontalStack=0;rounded=1;fontSize=14;fontStyle=0;strokeWidth=2;resizeParent=0;resizeLast=1;shadow=0;dashed=0;align=center;fillColor=#d0cee2;strokeColor=#56517e;" vertex="1" parent="1">
          <mxGeometry x="590" y="980" width="145" height="70" as="geometry" />
        </mxCell>
        <mxCell id="9GAb07feFsV1BC37GYXu-14" value="" style="endArrow=classic;html=1;" edge="1" parent="1">
          <mxGeometry width="50" height="50" relative="1" as="geometry">
            <mxPoint x="714" y="950" as="sourcePoint" />
            <mxPoint x="780" y="950" as="targetPoint" />
          </mxGeometry>
        </mxCell>
        <mxCell id="9GAb07feFsV1BC37GYXu-15" value="" style="endArrow=classic;html=1;exitX=0;exitY=0.25;exitDx=0;exitDy=0;" edge="1" parent="1" source="9GAb07feFsV1BC37GYXu-1">
          <mxGeometry width="50" height="50" relative="1" as="geometry">
            <mxPoint x="610" y="870" as="sourcePoint" />
            <mxPoint x="720" y="935" as="targetPoint" />
          </mxGeometry>
        </mxCell>
        <mxCell id="9GAb07feFsV1BC37GYXu-5" value="quicklistNode" style="swimlane;childLayout=stackLayout;horizontal=1;startSize=30;horizontalStack=0;rounded=1;fontSize=14;fontStyle=0;strokeWidth=2;resizeParent=0;resizeLast=1;shadow=0;dashed=0;align=center;fillColor=#f8cecc;strokeColor=#b85450;" vertex="1" parent="1">
          <mxGeometry x="780" y="890" width="170" height="70" as="geometry" />
        </mxCell>
        <mxCell id="9GAb07feFsV1BC37GYXu-16" value="zlbytes" style="whiteSpace=wrap;html=1;align=center;fillColor=#ffe6cc;strokeColor=#d79b00;" vertex="1" parent="1">
          <mxGeometry x="780" y="1020" width="40" height="20" as="geometry" />
        </mxCell>
        <mxCell id="9GAb07feFsV1BC37GYXu-17" value="zltail" style="whiteSpace=wrap;html=1;align=center;fillColor=#ffe6cc;strokeColor=#d79b00;" vertex="1" parent="1">
          <mxGeometry x="820" y="1020" width="40" height="20" as="geometry" />
        </mxCell>
        <mxCell id="9GAb07feFsV1BC37GYXu-18" value="zllen" style="whiteSpace=wrap;html=1;align=center;fillColor=#ffe6cc;strokeColor=#d79b00;" vertex="1" parent="1">
          <mxGeometry x="860" y="1020" width="40" height="20" as="geometry" />
        </mxCell>
        <mxCell id="9GAb07feFsV1BC37GYXu-19" value="entry" style="whiteSpace=wrap;html=1;align=center;fillColor=#f8cecc;strokeColor=#b85450;" vertex="1" parent="1">
          <mxGeometry x="900" y="1020" width="40" height="20" as="geometry" />
        </mxCell>
        <mxCell id="9GAb07feFsV1BC37GYXu-20" value="zlend" style="whiteSpace=wrap;html=1;align=center;fillColor=#fff2cc;strokeColor=#d6b656;" vertex="1" parent="1">
          <mxGeometry x="960" y="1020" width="40" height="20" as="geometry" />
        </mxCell>
        <mxCell id="9GAb07feFsV1BC37GYXu-21" value="···" style="text;html=1;align=center;verticalAlign=middle;resizable=0;points=[];autosize=1;" vertex="1" parent="1">
          <mxGeometry x="935" y="1020" width="30" height="20" as="geometry" />
        </mxCell>
        <mxCell id="9GAb07feFsV1BC37GYXu-22" value="ziplist" style="swimlane;childLayout=stackLayout;horizontal=1;startSize=30;horizontalStack=0;rounded=1;fontSize=14;fontStyle=0;strokeWidth=2;resizeParent=0;resizeLast=1;shadow=0;dashed=0;align=center;fillColor=#e1d5e7;strokeColor=#9673a6;" vertex="1" parent="1">
          <mxGeometry x="770" y="980" width="240" height="70" as="geometry" />
        </mxCell>
        <mxCell id="9GAb07feFsV1BC37GYXu-23" value="" style="endArrow=classic;html=1;exitX=0.5;exitY=1;exitDx=0;exitDy=0;entryX=0.475;entryY=0;entryDx=0;entryDy=0;entryPerimeter=0;" edge="1" parent="1" source="9GAb07feFsV1BC37GYXu-3" target="9GAb07feFsV1BC37GYXu-22">
          <mxGeometry width="50" height="50" relative="1" as="geometry">
            <mxPoint x="680" y="940" as="sourcePoint" />
            <mxPoint x="730" y="890" as="targetPoint" />
          </mxGeometry>
        </mxCell>
      </root>
    </mxGraphModel>
  </diagram>
</mxfile>
